<svg width="20" height="20" viewBox="0 0 20 20" fill="none" xmlns="http://www.w3.org/2000/svg">
<path d="M10.0916 0.000432776C4.56679 -0.0508697 0.050431 4.38238 -0.000871528 9.90715C-0.0221752 12.0063 0.61836 14.0589 1.82979 15.7734C3.04122 17.4879 4.76197 18.7772 6.74773 19.4582C7.2469 19.5499 7.43768 19.2516 7.44012 18.9886C7.44232 18.7516 7.43663 17.9646 7.44441 17.1266C4.92822 17.5662 4.28823 16.4853 4.09347 15.9204C3.98315 15.6314 3.50441 14.7399 3.08163 14.498C2.73338 14.3077 2.23771 13.8401 3.07478 13.8359C3.86287 13.8302 4.41799 14.5734 4.6032 14.8751C5.48912 16.3954 6.93 15.9838 7.50741 15.7271C7.60144 15.078 7.86749 14.6434 8.1578 14.3961C5.93522 14.1254 3.61833 13.2409 3.65385 9.41606C3.66395 8.32811 4.05928 7.43274 4.70375 6.73869C4.60608 6.48778 4.26561 5.45957 4.82835 4.08974C4.82835 4.08974 5.66776 3.83452 7.56873 5.13923C8.38494 4.92144 9.22703 4.81588 10.0717 4.82546C10.9217 4.83335 11.7706 4.95324 12.5685 5.18566C14.4935 3.90348 15.3279 4.18724 15.3279 4.18724C15.8651 5.56728 15.5056 6.58899 15.4033 6.83805C16.0338 7.54393 16.4135 8.4345 16.4033 9.53445C16.3677 13.3723 14.0229 14.2005 11.7956 14.4299C12.1547 14.7452 12.4621 15.3481 12.4534 16.2861C12.441 17.623 12.418 18.6978 12.4149 19.0358C12.4125 19.2978 12.5976 19.6115 13.0985 19.5162C15.0891 18.8638 16.8252 17.6038 18.0627 15.9135C19.3002 14.2232 19.9767 12.1876 19.9973 10.0928C20.0486 4.56809 15.6153 0.051726 10.0906 0.000423487" fill="#ABB2BF"/>
</svg>
