<svg width="21" height="22" viewBox="0 0 21 22" fill="none" xmlns="http://www.w3.org/2000/svg">
<g clip-path="url(#clip0_543_1428)">
<path d="M18.5852 1.84998L2.05423 1.71744C1.00515 1.70903 0.140604 2.55101 0.133025 3.5885L0.0135953 19.9369C0.00601619 20.9744 0.858156 21.8301 1.90724 21.8385L18.4383 21.971C19.4873 21.9795 20.3519 21.1375 20.3595 20.1L20.4789 3.75162C20.4865 2.71413 19.6343 1.85839 18.5852 1.84998ZM7.65708 18.1117L5.11384 18.0913L5.17815 9.28833L7.72138 9.30872L7.65708 18.1117ZM6.45895 8.04096C6.1217 8.03825 5.79923 7.90317 5.56248 7.66542C5.32572 7.42766 5.19409 7.10672 5.19652 6.7732C5.19896 6.43967 5.33527 6.12088 5.57547 5.88695C5.81567 5.65302 6.14007 5.52312 6.47733 5.52582C6.81458 5.52853 7.13705 5.66362 7.37381 5.90137C7.61056 6.13912 7.74219 6.46006 7.73976 6.79359C7.73732 7.12711 7.60101 7.44591 7.36081 7.67983C7.12062 7.91376 6.79621 8.04366 6.45895 8.04096ZM16.5584 18.1831L14.0152 18.1627L14.0519 13.1324C14.0543 12.7989 13.9227 12.4779 13.686 12.2402C13.4492 12.0024 13.1267 11.8673 12.7895 11.8646C12.4522 11.8619 12.1278 11.9918 11.8876 12.2258C11.6474 12.4597 11.5111 12.7785 11.5087 13.112L11.4719 18.1423L8.92869 18.1219L8.993 9.31892L11.5362 9.33931L11.5248 10.8999C12.0539 10.1924 12.8638 9.34995 13.7616 9.35715C15.3435 9.36983 16.6124 10.7873 16.5997 12.524L16.5584 18.1831Z" fill="#ABB2BF"/>
</g>
<defs>
<clipPath id="clip0_543_1428">
<rect width="21" height="22" fill="white"/>
</clipPath>
</defs>
</svg>
