<svg width="32" height="33" viewBox="0 0 32 33" fill="none" xmlns="http://www.w3.org/2000/svg">
<path d="M32 9.10078C31.981 8.43347 31.9276 7.76749 31.84 7.10531C31.7203 6.52547 31.5213 5.96365 31.248 5.43469C30.961 4.86156 30.577 4.33875 30.112 3.88781C29.6419 3.44243 29.1019 3.07175 28.512 2.78953C27.9641 2.53068 27.383 2.34342 26.784 2.23266C26.1058 2.13356 25.4217 2.07672 24.736 2.0625H7.28C6.58977 2.08091 5.90092 2.13254 5.216 2.21719C4.61625 2.33287 4.03513 2.52535 3.488 2.78953C2.89519 3.06703 2.35443 3.43822 1.888 3.88781C1.42732 4.34229 1.04391 4.86437 0.752 5.43469C0.484264 5.96442 0.290567 6.52622 0.176 7.10531C0.0734968 7.76098 0.014709 8.42235 0 9.08531V25.9617C0.0190413 26.629 0.0724406 27.295 0.16 27.9572C0.279654 28.537 0.478742 29.0989 0.752 29.6278C1.03902 30.2009 1.42296 30.7237 1.888 31.1747C2.35808 31.6201 2.89809 31.9907 3.488 32.273C4.03593 32.5318 4.61702 32.7191 5.216 32.8298C5.89419 32.9289 6.57827 32.9858 7.264 33H24.72C25.4102 32.9816 26.0991 32.93 26.784 32.8453C27.3838 32.7296 27.9649 32.5372 28.512 32.273C29.1048 31.9955 29.6456 31.6243 30.112 31.1747C30.5727 30.7202 30.9561 30.1981 31.248 29.6278C31.5157 29.0981 31.7094 28.5363 31.824 27.9572C31.9265 27.3015 31.9853 26.6402 32 25.9772V9.10078ZM16.368 28.3594C14.4463 28.3516 12.5581 27.8726 10.88 26.9672L4.8 28.5141L6.4 22.7597C5.36747 21.0839 4.81521 19.1724 4.8 17.2219C4.80637 15.0298 5.48352 12.8886 6.74618 11.068C8.00883 9.24727 9.80051 7.82852 11.8956 6.9904C13.9906 6.15228 16.2954 5.93227 18.5195 6.35808C20.7436 6.78388 22.7877 7.83646 24.3943 9.38325C26.0009 10.93 27.0981 12.9018 27.5478 15.0504C27.9974 17.1989 27.7794 19.428 26.9213 21.4569C26.0631 23.4859 24.6031 25.224 22.7251 26.4522C20.8472 27.6805 18.6353 28.3441 16.368 28.3594ZM16.368 8.04891C14.6717 8.06767 13.0108 8.52068 11.5545 9.3618C10.0982 10.2029 8.89836 11.4021 8.07727 12.8373C7.25618 14.2725 6.84312 15.8924 6.88014 17.5321C6.91715 19.1718 7.40293 20.7727 8.288 22.1719L8.512 22.5277L7.552 25.9153L11.2 24.9562L11.552 25.1573C13.0073 25.9861 14.663 26.429 16.352 26.4413C18.8981 26.4413 21.3399 25.4634 23.1402 23.7228C24.9406 21.9823 25.952 19.6215 25.952 17.16C25.952 14.6985 24.9406 12.3377 23.1402 10.5972C21.3399 8.85659 18.8981 7.87875 16.352 7.87875L16.368 8.04891ZM21.968 21.2283C21.7584 21.5662 21.4778 21.8579 21.1443 22.0844C20.8109 22.3109 20.4319 22.4671 20.032 22.5431C19.4346 22.6506 18.8189 22.6134 18.24 22.4348C17.6951 22.2698 17.1608 22.0735 16.64 21.847C14.662 20.8874 12.9751 19.4484 11.744 17.6705C11.0766 16.8458 10.6709 15.8518 10.576 14.8087C10.5665 14.3753 10.6513 13.9447 10.8249 13.545C10.9986 13.1453 11.2572 12.7853 11.584 12.4884C11.6803 12.3829 11.7984 12.2981 11.9306 12.2395C12.0629 12.1809 12.2065 12.1497 12.352 12.1481H12.8C12.976 12.1481 13.216 12.1481 13.44 12.6277C13.664 13.1072 14.256 14.5458 14.336 14.685C14.3753 14.7592 14.3958 14.8414 14.3958 14.9248C14.3958 15.0081 14.3753 15.0903 14.336 15.1645C14.2662 15.3331 14.169 15.4898 14.048 15.6286C13.904 15.7988 13.744 15.9998 13.616 16.1236C13.488 16.2473 13.328 16.402 13.488 16.6805C13.9241 17.3903 14.4628 18.0362 15.088 18.5986C15.7695 19.1808 16.5486 19.6463 17.392 19.9753C17.68 20.1145 17.856 20.0991 18.016 19.9753C18.176 19.8516 18.736 19.1709 18.928 18.8925C19.12 18.6141 19.312 18.6605 19.568 18.7533C19.824 18.8461 21.248 19.5112 21.536 19.6505C21.824 19.7897 22 19.8516 22.08 19.9753C22.1494 20.3802 22.1108 20.7954 21.968 21.1819V21.2283Z" fill="#ABB2BF"/>
</svg>
